<?xml version="1.0" ?><svg width="32px" height="32px" viewBox="0 0 32 32" xmlns="http://www.w3.org/2000/svg">
    <defs>
        <style>
            .cls-1 {
                fill: #d50000;
            }

            .cls-2 {
                fill: #00c853;

            }

            .cls-3 {
                fill: #795548;
            }
        </style>
    </defs>
    <title />
    <g data-name="Layer 3" id="Layer_3">
        <rect x="-5.6" y="-4.6" width="45.5" height="46" fill="#0d2c40" />
        <path class="cls-1"
            d="M 22.3 10.8 a 3.5 3.5 0 0 1 -1.6 1 a 0.5 0.5 0 0 1 -0.5 -0.1 a 2.6 2.6 0 0 1 -0.7 -1.5 a 3.7 3.7 0 0 0 -2.4 0.7 a 0.5 0.5 0 0 1 -0.4 0 a 16.6 16.6 0 0 0 -1.6 4.9 C 14 21.8 13.4 24.5 6.7 27 a 0.5 0.5 0 0 0 -0.3 0.4 a 0.5 0.5 0 0 0 0.3 0.5 a 8.9 8.9 0 0 0 4.5 1.2 c 3.9 0 7.9 -2.5 10.5 -7.1 a 22 22 0 0 0 3.1 -9.4 A 6.2 6.2 0 0 0 22.3 10.8 Z" />
        <path class="cls-2"
            d="M 23.2 8.5 a 4.5 4.5 0 0 1 -0.4 0.6 l -0.1 0.1 l -0.1 0.1 a 1.1 1.1 0 0 1 -0.6 0.2 a 0.9 0.9 0 0 1 -0.3 0 a 1 1 0 0 1 -0.7 -0.7 s 0 0 0 0 a 0.5 0.5 0 0 1 0.1 -0.4 A 0.9 0.9 0 0 0 21.3 8 c -1 -0.3 -3.2 -0.6 -4.8 2.2 a 0.5 0.5 0 0 0 0.1 0.6 a 0.4 0.4 0 0 0 0.2 0.1 a 0.5 0.5 0 0 0 0.4 0 a 3.7 3.7 0 0 1 2.4 -0.7 a 2.6 2.6 0 0 0 0.7 1.5 a 0.5 0.5 0 0 0 0.5 0.1 a 3.5 3.5 0 0 0 1.6 -1 a 6.2 6.2 0 0 1 2.4 1.8 a 0.9 0.9 0 0 1 0.1 0.2 a 0.5 0.5 0 0 0 0.4 0.2 a 0.4 0.4 0 0 0 0.2 0 a 0.5 0.5 0 0 0 0.3 -0.5 A 3.8 3.8 0 0 0 23.2 8.5 Z" />
        <path class="cls-3"
            d="M 24.1 3.5 a 0.5 0.5 0 0 0 -0.6 -0.4 l -2.1 0.3 a 0.5 0.5 0 0 0 -0.3 0.2 A 0.5 0.5 0 0 0 21 4 A 10.6 10.6 0 0 1 21.3 8 a 0.9 0.9 0 0 1 -0.1 0.3 a 0.5 0.5 0 0 0 -0.1 0.4 s 0 0 0 0 a 1 1 0 0 0 0.7 0.7 a 0.9 0.9 0 0 0 0.3 0 a 1.1 1.1 0 0 0 0.6 -0.2 l 0.1 -0.1 l 0.1 -0.1 a 4.5 4.5 0 0 0 0.4 -0.6 A 8.1 8.1 0 0 0 24.1 3.5 Z" />
    </g>
</svg>